<?xml version="1.0" encoding="UTF-8" standalone="no"?>
<!DOCTYPE svg PUBLIC "-//W3C//DTD SVG 1.1//EN" "http://www.w3.org/Graphics/SVG/1.1/DTD/svg11.dtd">
<svg width="100%" height="100%" viewBox="0 0 3915 677" version="1.1" xmlns="http://www.w3.org/2000/svg" xmlns:xlink="http://www.w3.org/1999/xlink" xml:space="preserve" xmlns:serif="http://www.serif.com/" style="fill-rule:evenodd;clip-rule:evenodd;stroke-linejoin:round;stroke-miterlimit:2;">
    <g>
        <g transform="matrix(5.55556,0,0,5.55556,0,676.817)">
            <path d="M0,-93.609L35.191,-93.609C50.191,-93.609 55.242,-82.647 55.242,-73.416L55.242,-53.511C55.242,-44.28 50.191,-33.318 35.191,-33.318L17.309,-33.318L17.309,0L0,0L0,-93.609ZM34.904,-49.185C37.066,-49.185 38.076,-50.338 38.076,-52.79L38.076,-74.137C38.076,-76.589 37.066,-77.742 34.904,-77.742L17.309,-77.742L17.309,-49.185L34.904,-49.185Z" style="fill-rule:nonzero;"/>
        </g>
        <g transform="matrix(5.55556,0,0,5.55556,366.992,268.951)">
            <path d="M0,53.223L0,0C0,-9.231 5.193,-20.193 20.193,-20.193L36.203,-20.193C51.205,-20.193 56.254,-9.231 56.254,0L56.254,53.223C56.254,62.454 51.205,73.416 36.203,73.416L20.193,73.416C5.193,73.416 0,62.454 0,53.223M35.916,57.55C38.08,57.55 39.09,56.396 39.09,53.944L39.09,-0.721C39.09,-3.173 38.08,-4.326 35.916,-4.326L20.482,-4.326C18.176,-4.326 17.309,-3.173 17.309,-0.721L17.309,53.944C17.309,56.396 18.176,57.55 20.482,57.55L35.916,57.55Z" style="fill-rule:nonzero;"/>
        </g>
        <g transform="matrix(5.55556,0,0,5.55556,757.27,268.951)">
            <path d="M0,53.223L0,0C0,-9.231 5.191,-20.193 20.191,-20.193L36.201,-20.193C51.203,-20.193 56.252,-9.231 56.252,0L56.252,53.223C56.252,62.454 51.203,73.416 36.201,73.416L20.191,73.416C5.191,73.416 0,62.454 0,53.223M35.914,57.55C38.078,57.55 39.088,56.396 39.088,53.944L39.088,-0.721C39.088,-3.173 38.078,-4.326 35.914,-4.326L20.48,-4.326C18.174,-4.326 17.307,-3.173 17.307,-0.721L17.307,53.944C17.307,56.396 18.174,57.55 20.48,57.55L35.914,57.55Z" style="fill-rule:nonzero;"/>
        </g>
        <g transform="matrix(5.55556,0,0,5.55556,1261.3,156.769)">
            <path d="M0,93.609C-14.998,93.609 -20.191,82.647 -20.191,73.416L-20.191,0L-2.883,0L-2.883,74.137C-2.883,76.589 -2.018,77.742 0.289,77.742L28.703,77.742L28.703,93.609L0,93.609Z" style="fill-rule:nonzero;"/>
        </g>
        <g transform="matrix(5.55556,0,0,5.55556,1493.7,566.241)">
            <path d="M0,-53.801C0,-62.886 5.48,-73.705 20.193,-73.705L34.615,-73.705C49.615,-73.705 54.666,-62.743 54.666,-53.512L54.666,19.904L37.5,19.904L37.5,-13.269L17.307,-13.269L17.307,19.904L0,19.904L0,-53.801ZM37.5,-29.135L37.5,-54.233C37.5,-56.685 36.492,-57.839 34.184,-57.839L20.48,-57.839C18.174,-57.839 17.307,-56.685 17.307,-54.233L17.307,-29.135L37.5,-29.135Z" style="fill-rule:nonzero;"/>
        </g>
        <g transform="matrix(5.55556,0,0,5.55556,1986.51,156.769)">
            <path d="M0,93.609C-15,93.609 -20.193,82.647 -20.193,73.416L-20.193,0L-2.885,0L-2.885,74.137C-2.885,76.589 -2.02,77.742 0.289,77.742L28.703,77.742L28.703,93.609L0,93.609Z" style="fill-rule:nonzero;"/>
        </g>
        <g transform="matrix(5.55556,0,0,5.55556,2197.28,676.817)">
            <path d="M0,-93.609L35.193,-93.609C50.191,-93.609 55.242,-82.647 55.242,-73.416L55.242,-53.511C55.242,-44.28 50.191,-33.318 35.193,-33.318L17.309,-33.318L17.309,0L0,0L0,-93.609ZM34.904,-49.185C37.066,-49.185 38.076,-50.338 38.076,-52.79L38.076,-74.137C38.076,-76.589 37.066,-77.742 34.904,-77.742L17.309,-77.742L17.309,-49.185L34.904,-49.185Z" style="fill-rule:nonzero;"/>
        </g>
        <g transform="matrix(5.55556,0,0,5.55556,-1175.52,-1492.51)">
            <rect x="674.031" y="296.87" width="17.309" height="93.609"/>
        </g>
        <g transform="matrix(5.55556,0,0,5.55556,2751.8,676.817)">
            <path d="M0,-93.609L19.762,-93.609L41.828,-39.087L41.828,-93.609L58.992,-93.609L58.992,0L41.107,0L17.309,-56.396L17.309,0L0,0L0,-93.609Z" style="fill-rule:nonzero;"/>
        </g>
        <g transform="matrix(5.55556,0,0,5.55556,3914.62,208.45)">
            <path d="M0,-22.818L0,-16.962L-19.096,-11.104L-63.268,2.44L-74.494,5.918L-83.156,8.602L-103.107,14.703L-103.107,-5.125L-83.156,-11.409L-81.938,-11.775L-0.062,-37.521L0,-22.818Z" style="fill-rule:nonzero;"/>
        </g>
        <g transform="matrix(5.55556,0,0,5.55556,3563.13,378.941)">
            <path d="M0,-28.248L0,-5.125L-10.799,-2.501L-11.227,-2.379L-11.65,-2.257L-19.889,0L-19.889,-22.086L-11.227,-24.77L0,-28.248Z" style="fill-rule:nonzero;"/>
        </g>
        <g transform="matrix(5.55556,0,0,5.55556,3452.64,368.434)">
            <path d="M0,31.542C0,31.725 0.184,31.908 0.367,31.908L-19.951,31.908L-19.951,6.649L0,1.707L8.238,-0.366L0,1.891L0,31.542Z" style="fill-rule:nonzero;"/>
        </g>
        <g transform="matrix(5.55556,0,0,5.55556,3563.13,365.045)">
            <path d="M0,-2.928L0,-2.624L-10.799,0L0,-2.928Z" style="fill:white;fill-rule:nonzero;"/>
        </g>
        <g transform="matrix(5.55556,0,0,5.55556,3913.94,347.649)">
            <path d="M0,36.259L0,36.382C-1.037,45.777 -7.26,55.539 -22.146,55.539L-102.986,55.539L-102.986,35.649L-24.037,35.649C-21.477,35.649 -20.561,34.368 -20.561,31.683L-20.561,-14.582L-0.186,-19.28L0,36.259Z" style="fill-rule:nonzero;"/>
        </g>
    </g>
</svg>
